<svg preserveAspectRatio="none" width="32" height="29" viewBox="0 0 32 29" fill="none" xmlns="http://www.w3.org/2000/svg">
<path d="M15.833 28.625L14.333 27.25C11.4997 24.6667 9.15933 22.4443 7.312 20.583C5.46467 18.7223 3.99933 17.0697 2.916 15.625C1.83267 14.1803 1.07567 12.868 0.645 11.688C0.215 10.5073 0 9.33367 0 8.167C0 5.83367 0.777667 3.889 2.333 2.333C3.88833 0.777667 5.819 0 8.125 0C9.65233 0 11.0757 0.375 12.395 1.125C13.715 1.875 14.861 2.95833 15.833 4.375C16.8883 2.903 18.062 1.80567 19.354 1.083C20.6453 0.361 22.041 0 23.541 0C25.847 0 27.7777 0.777667 29.333 2.333C30.8883 3.889 31.666 5.83367 31.666 8.167C31.666 9.33367 31.451 10.5073 31.021 11.688C30.5903 12.868 29.8333 14.1803 28.75 15.625C27.6667 17.0697 26.2013 18.7223 24.354 20.583C22.5067 22.4443 20.1663 24.6667 17.333 27.25L15.833 28.625ZM15.833 25.833C18.555 23.333 20.805 21.1943 22.583 19.417C24.361 17.639 25.7637 16.0833 26.791 14.75C27.819 13.4167 28.5413 12.236 28.958 11.208C29.3747 10.1807 29.583 9.167 29.583 8.167C29.583 6.417 29.0137 4.96567 27.875 3.813C26.7357 2.65967 25.291 2.083 23.541 2.083C22.1523 2.083 20.8747 2.493 19.708 3.313C18.5413 4.13233 17.5553 5.31967 16.75 6.875H14.916C14.0827 5.31967 13.0897 4.13233 11.937 3.313C10.7843 2.493 9.51367 2.083 8.125 2.083C6.40233 2.083 4.96467 2.65967 3.812 3.813C2.65933 4.96567 2.083 6.417 2.083 8.167C2.083 9.167 2.29133 10.1877 2.708 11.229C3.12467 12.271 3.847 13.4587 4.875 14.792C5.90233 16.1253 7.305 17.674 9.083 19.438C10.861 21.2013 13.111 23.333 15.833 25.833Z" fill="black"/>
</svg>
